<mxfile host="app.diagrams.net" modified="2022-12-02T04:28:47.038Z" agent="5.0 (Windows NT 10.0; Win64; x64) AppleWebKit/537.36 (KHTML, like Gecko) Chrome/108.0.0.0 Safari/537.36" etag="eNDixpYFT4elmfmPVpVi" version="20.6.0" type="github">
  <diagram id="ROQpeATMPap4kOnLPtFG" name="第 1 页">
    <mxGraphModel dx="3026" dy="1162" grid="0" gridSize="10" guides="1" tooltips="1" connect="1" arrows="1" fold="1" page="0" pageScale="1" pageWidth="827" pageHeight="1169" math="0" shadow="0">
      <root>
        <mxCell id="0" />
        <mxCell id="1" parent="0" />
        <mxCell id="E92-nrNccd6m65gMIvb--3" value="&lt;font style=&quot;font-size: 23px;&quot;&gt;RadialBlur&lt;/font&gt;" style="rounded=1;whiteSpace=wrap;html=1;fillColor=#d5e8d4;strokeColor=#82b366;glass=0;sketch=0;shadow=0;flipV=1;" parent="1" vertex="1">
          <mxGeometry x="-1298.5" y="3" width="300" height="50" as="geometry" />
        </mxCell>
        <mxCell id="E92-nrNccd6m65gMIvb--8" value="&lt;pre style=&quot;color: rgb(32, 32, 32); font-family: &amp;quot;JetBrains Mono&amp;quot;, monospace; font-size: 9.8pt;&quot;&gt;&lt;span style=&quot;color: rgb(0, 0, 0); font-family: Helvetica; font-size: 23px;&quot;&gt;BoxBlurDof&lt;/span&gt;&lt;br&gt;&lt;/pre&gt;" style="rounded=1;whiteSpace=wrap;html=1;fillColor=#d5e8d4;strokeColor=#82b366;glass=0;sketch=0;shadow=0;flipV=1;" parent="1" vertex="1">
          <mxGeometry x="-1298.5" y="218" width="300" height="50" as="geometry" />
        </mxCell>
        <mxCell id="YoJyYA68wJGh0S3YDtXZ-1" value="&lt;span style=&quot;font-size: 23px;&quot;&gt;RadialBlur +&amp;nbsp;&lt;/span&gt;&lt;span style=&quot;font-size: 23px; background-color: initial;&quot;&gt;BoxBlurDof&lt;/span&gt;&lt;span style=&quot;font-size: 23px;&quot;&gt;&lt;br&gt;&lt;/span&gt;" style="rounded=1;whiteSpace=wrap;html=1;fillColor=#d5e8d4;strokeColor=#82b366;glass=0;sketch=0;shadow=0;flipV=1;" parent="1" vertex="1">
          <mxGeometry x="-1298.5" y="432" width="300" height="50" as="geometry" />
        </mxCell>
        <mxCell id="6R4_YF4mNJZMCzkiA29h-5" value="" style="edgeStyle=orthogonalEdgeStyle;rounded=0;orthogonalLoop=1;jettySize=auto;html=1;fontColor=#000000;fillColor=#ffe6cc;strokeColor=#d79b00;" edge="1" parent="1" source="6R4_YF4mNJZMCzkiA29h-3" target="6R4_YF4mNJZMCzkiA29h-4">
          <mxGeometry relative="1" as="geometry" />
        </mxCell>
        <mxCell id="6R4_YF4mNJZMCzkiA29h-3" value="&lt;pre style=&quot;color: rgb(32, 32, 32); font-family: &amp;quot;JetBrains Mono&amp;quot;, monospace; font-size: 9.8pt;&quot;&gt;_RadialBlurTexture&lt;/pre&gt;" style="rounded=1;whiteSpace=wrap;html=1;fillColor=#fff2cc;strokeColor=#d6b656;glass=0;sketch=0;shadow=0;" vertex="1" parent="1">
          <mxGeometry x="-879" y="-1" width="144" height="54" as="geometry" />
        </mxCell>
        <mxCell id="6R4_YF4mNJZMCzkiA29h-4" value="&lt;pre style=&quot;font-family: &amp;quot;JetBrains Mono&amp;quot;, monospace; font-size: 9.8pt;&quot;&gt;_RadialBlurTarget&lt;/pre&gt;" style="rounded=1;whiteSpace=wrap;html=1;fillColor=#fff2cc;strokeColor=#d6b656;glass=0;sketch=0;shadow=0;" vertex="1" parent="1">
          <mxGeometry x="-329" y="-1" width="137" height="54" as="geometry" />
        </mxCell>
        <mxCell id="6R4_YF4mNJZMCzkiA29h-6" value="" style="edgeStyle=orthogonalEdgeStyle;rounded=0;orthogonalLoop=1;jettySize=auto;html=1;fontColor=#000000;fillColor=#ffe6cc;strokeColor=#d79b00;" edge="1" parent="1" source="6R4_YF4mNJZMCzkiA29h-7" target="6R4_YF4mNJZMCzkiA29h-8">
          <mxGeometry relative="1" as="geometry" />
        </mxCell>
        <mxCell id="6R4_YF4mNJZMCzkiA29h-11" style="edgeStyle=orthogonalEdgeStyle;rounded=0;orthogonalLoop=1;jettySize=auto;html=1;entryX=0;entryY=0.5;entryDx=0;entryDy=0;fontColor=#000000;fillColor=#ffe6cc;strokeColor=#d79b00;" edge="1" parent="1" source="6R4_YF4mNJZMCzkiA29h-7" target="6R4_YF4mNJZMCzkiA29h-9">
          <mxGeometry relative="1" as="geometry" />
        </mxCell>
        <mxCell id="6R4_YF4mNJZMCzkiA29h-7" value="&lt;pre style=&quot;color: rgb(32, 32, 32); font-family: &amp;quot;JetBrains Mono&amp;quot;, monospace; font-size: 9.8pt;&quot;&gt;_AfterPostProcessTexture&lt;/pre&gt;" style="rounded=1;whiteSpace=wrap;html=1;fillColor=#fff2cc;strokeColor=#d6b656;glass=0;sketch=0;shadow=0;" vertex="1" parent="1">
          <mxGeometry x="-879" y="211.5" width="186" height="54" as="geometry" />
        </mxCell>
        <mxCell id="6R4_YF4mNJZMCzkiA29h-13" style="edgeStyle=orthogonalEdgeStyle;rounded=0;orthogonalLoop=1;jettySize=auto;html=1;fontColor=#000000;fillColor=#ffe6cc;strokeColor=#d79b00;" edge="1" parent="1" source="6R4_YF4mNJZMCzkiA29h-8" target="6R4_YF4mNJZMCzkiA29h-12">
          <mxGeometry relative="1" as="geometry" />
        </mxCell>
        <mxCell id="6R4_YF4mNJZMCzkiA29h-8" value="&lt;pre style=&quot;font-family: &amp;quot;JetBrains Mono&amp;quot;, monospace; font-size: 9.8pt;&quot;&gt;&lt;pre style=&quot;color: rgb(32, 32, 32); font-family: &amp;quot;JetBrains Mono&amp;quot;, monospace; font-size: 9.8pt;&quot;&gt;&lt;span style=&quot;color:#8c6c41;&quot;&gt;_BoxBlurDofRT01&lt;/span&gt;&lt;/pre&gt;&lt;/pre&gt;" style="rounded=1;whiteSpace=wrap;html=1;fillColor=#fff2cc;strokeColor=#d6b656;glass=0;sketch=0;shadow=0;" vertex="1" parent="1">
          <mxGeometry x="-587" y="163.5" width="137" height="54" as="geometry" />
        </mxCell>
        <mxCell id="6R4_YF4mNJZMCzkiA29h-14" style="edgeStyle=orthogonalEdgeStyle;rounded=0;orthogonalLoop=1;jettySize=auto;html=1;entryX=0;entryY=0.5;entryDx=0;entryDy=0;fontColor=#000000;fillColor=#ffe6cc;strokeColor=#d79b00;" edge="1" parent="1" source="6R4_YF4mNJZMCzkiA29h-9" target="6R4_YF4mNJZMCzkiA29h-12">
          <mxGeometry relative="1" as="geometry" />
        </mxCell>
        <mxCell id="6R4_YF4mNJZMCzkiA29h-9" value="&lt;pre style=&quot;font-family: &amp;quot;JetBrains Mono&amp;quot;, monospace; font-size: 9.8pt;&quot;&gt;&lt;pre style=&quot;color: rgb(32, 32, 32); font-family: &amp;quot;JetBrains Mono&amp;quot;, monospace; font-size: 9.8pt;&quot;&gt;&lt;span style=&quot;color:#8c6c41;&quot;&gt;_BoxBlurDofRT02&lt;/span&gt;&lt;/pre&gt;&lt;/pre&gt;" style="rounded=1;whiteSpace=wrap;html=1;fillColor=#fff2cc;strokeColor=#d6b656;glass=0;sketch=0;shadow=0;" vertex="1" parent="1">
          <mxGeometry x="-587" y="268.5" width="137" height="54" as="geometry" />
        </mxCell>
        <mxCell id="6R4_YF4mNJZMCzkiA29h-12" value="&lt;pre style=&quot;color: rgb(32, 32, 32); font-family: &amp;quot;JetBrains Mono&amp;quot;, monospace; font-size: 9.8pt;&quot;&gt;_CameraColorTexture&lt;/pre&gt;" style="rounded=1;whiteSpace=wrap;html=1;fillColor=#fff2cc;strokeColor=#d6b656;glass=0;sketch=0;shadow=0;" vertex="1" parent="1">
          <mxGeometry x="-381" y="211.5" width="186" height="54" as="geometry" />
        </mxCell>
      </root>
    </mxGraphModel>
  </diagram>
</mxfile>
